<mxfile host="app.diagrams.net" modified="2023-08-26T18:32:17.157Z" agent="Mozilla/5.0 (Macintosh; Intel Mac OS X 10_15_7) AppleWebKit/537.36 (KHTML, like Gecko) Chrome/114.0.0.0 Safari/537.36" etag="aMpvZpi4b1s0P51Y81aO" version="21.6.8" type="device">
  <diagram name="Page-1" id="74e2e168-ea6b-b213-b513-2b3c1d86103e">
    <mxGraphModel dx="793" dy="438" grid="1" gridSize="10" guides="1" tooltips="1" connect="1" arrows="1" fold="1" page="1" pageScale="1" pageWidth="1100" pageHeight="850" background="none" math="0" shadow="0">
      <root>
        <mxCell id="0" />
        <mxCell id="1" parent="0" />
        <mxCell id="FhJZxUyLQplcRZ73rvST-6" value="" style="edgeStyle=orthogonalEdgeStyle;rounded=0;orthogonalLoop=1;jettySize=auto;html=1;" edge="1" parent="1" source="FhJZxUyLQplcRZ73rvST-1" target="FhJZxUyLQplcRZ73rvST-2">
          <mxGeometry relative="1" as="geometry" />
        </mxCell>
        <mxCell id="FhJZxUyLQplcRZ73rvST-1" value="Display Prompt" style="rounded=1;whiteSpace=wrap;html=1;" vertex="1" parent="1">
          <mxGeometry x="370" y="70" width="120" height="60" as="geometry" />
        </mxCell>
        <mxCell id="FhJZxUyLQplcRZ73rvST-7" value="" style="edgeStyle=orthogonalEdgeStyle;rounded=0;orthogonalLoop=1;jettySize=auto;html=1;" edge="1" parent="1" source="FhJZxUyLQplcRZ73rvST-2" target="FhJZxUyLQplcRZ73rvST-3">
          <mxGeometry relative="1" as="geometry" />
        </mxCell>
        <mxCell id="FhJZxUyLQplcRZ73rvST-2" value="Get Input" style="rounded=1;whiteSpace=wrap;html=1;" vertex="1" parent="1">
          <mxGeometry x="370" y="160" width="120" height="60" as="geometry" />
        </mxCell>
        <mxCell id="FhJZxUyLQplcRZ73rvST-8" value="" style="edgeStyle=orthogonalEdgeStyle;rounded=0;orthogonalLoop=1;jettySize=auto;html=1;entryX=0.5;entryY=0;entryDx=0;entryDy=0;" edge="1" parent="1" source="FhJZxUyLQplcRZ73rvST-3" target="FhJZxUyLQplcRZ73rvST-19">
          <mxGeometry relative="1" as="geometry" />
        </mxCell>
        <mxCell id="FhJZxUyLQplcRZ73rvST-3" value="Tokenise" style="rounded=1;whiteSpace=wrap;html=1;" vertex="1" parent="1">
          <mxGeometry x="370" y="260" width="120" height="60" as="geometry" />
        </mxCell>
        <mxCell id="FhJZxUyLQplcRZ73rvST-9" value="" style="edgeStyle=orthogonalEdgeStyle;rounded=0;orthogonalLoop=1;jettySize=auto;html=1;" edge="1" parent="1" source="FhJZxUyLQplcRZ73rvST-4" target="FhJZxUyLQplcRZ73rvST-5">
          <mxGeometry relative="1" as="geometry" />
        </mxCell>
        <mxCell id="FhJZxUyLQplcRZ73rvST-4" value="PostTokeniseProcessing" style="rounded=1;whiteSpace=wrap;html=1;" vertex="1" parent="1">
          <mxGeometry x="350" y="460" width="160" height="60" as="geometry" />
        </mxCell>
        <mxCell id="FhJZxUyLQplcRZ73rvST-11" value="" style="edgeStyle=orthogonalEdgeStyle;rounded=0;orthogonalLoop=1;jettySize=auto;html=1;" edge="1" parent="1" source="FhJZxUyLQplcRZ73rvST-5" target="FhJZxUyLQplcRZ73rvST-10">
          <mxGeometry relative="1" as="geometry" />
        </mxCell>
        <mxCell id="FhJZxUyLQplcRZ73rvST-5" value="HandleRedirection" style="rounded=1;whiteSpace=wrap;html=1;" vertex="1" parent="1">
          <mxGeometry x="370" y="560" width="120" height="60" as="geometry" />
        </mxCell>
        <mxCell id="FhJZxUyLQplcRZ73rvST-10" value="Execute" style="rounded=1;whiteSpace=wrap;html=1;" vertex="1" parent="1">
          <mxGeometry x="370" y="670" width="120" height="60" as="geometry" />
        </mxCell>
        <mxCell id="FhJZxUyLQplcRZ73rvST-17" style="edgeStyle=orthogonalEdgeStyle;rounded=0;orthogonalLoop=1;jettySize=auto;html=1;" edge="1" parent="1" source="FhJZxUyLQplcRZ73rvST-13">
          <mxGeometry relative="1" as="geometry">
            <mxPoint x="140" y="100" as="targetPoint" />
          </mxGeometry>
        </mxCell>
        <mxCell id="FhJZxUyLQplcRZ73rvST-13" value="" style="rounded=1;whiteSpace=wrap;html=1;dashed=1;dashPattern=8 8;fillColor=none;" vertex="1" parent="1">
          <mxGeometry x="280" y="440" width="300" height="330" as="geometry" />
        </mxCell>
        <mxCell id="FhJZxUyLQplcRZ73rvST-14" value="Per Pipe, numPIpes&amp;nbsp;" style="text;html=1;strokeColor=none;fillColor=none;align=center;verticalAlign=middle;whiteSpace=wrap;rounded=0;" vertex="1" parent="1">
          <mxGeometry x="300" y="540" width="60" height="30" as="geometry" />
        </mxCell>
        <mxCell id="FhJZxUyLQplcRZ73rvST-18" value="" style="endArrow=classic;html=1;rounded=0;entryX=0;entryY=0.5;entryDx=0;entryDy=0;" edge="1" parent="1" target="FhJZxUyLQplcRZ73rvST-1">
          <mxGeometry width="50" height="50" relative="1" as="geometry">
            <mxPoint x="140" y="100" as="sourcePoint" />
            <mxPoint x="370" y="170" as="targetPoint" />
          </mxGeometry>
        </mxCell>
        <mxCell id="FhJZxUyLQplcRZ73rvST-19" value="ParsePipes" style="rounded=1;whiteSpace=wrap;html=1;" vertex="1" parent="1">
          <mxGeometry x="370" y="350" width="120" height="60" as="geometry" />
        </mxCell>
        <mxCell id="FhJZxUyLQplcRZ73rvST-20" value="" style="edgeStyle=orthogonalEdgeStyle;rounded=0;orthogonalLoop=1;jettySize=auto;html=1;" edge="1" parent="1">
          <mxGeometry relative="1" as="geometry">
            <mxPoint x="430" y="410" as="sourcePoint" />
            <mxPoint x="430" y="460" as="targetPoint" />
          </mxGeometry>
        </mxCell>
      </root>
    </mxGraphModel>
  </diagram>
</mxfile>
